<?xml version="1.0" encoding="UTF-8"?>
<svg width="16px" height="16px" viewBox="0 0 16 16" version="1.1" xmlns="http://www.w3.org/2000/svg" xmlns:xlink="http://www.w3.org/1999/xlink">
    <!-- Generator: sketchtool 50.2 (55047) - http://www.bohemiancoding.com/sketch -->
    <title>B9B4B058-A518-4C18-92C9-EBE9060C83CF</title>
    <desc>Created with sketchtool.</desc>
    <defs></defs>
    <g id="Symbols" stroke="none" stroke-width="1" fill="none" fill-rule="evenodd">
        <g id="icon/title/popular-discussion">
            <g id="Page-1">
                <path d="M16,8 C16,12.4184 12.4184,16 8,16 C3.5816,16 0,12.4184 0,8 C0,3.5816 3.5816,0 8,0 C12.4184,0 16,3.5816 16,8" id="Fill-1" fill="#F4A622"></path>
                <path d="M13.85896,12.34768 C13.57016,12.07568 13.22056,11.86208 13.08376,10.94928 C14.50776,9.61328 14.16376,7.70048 12.30376,6.66368 C12.30456,6.69088 12.30536,6.71808 12.30536,6.74608 C12.30536,9.28208 9.62296,11.22528 6.42136,11.11808 C7.21016,11.75968 8.36696,12.16368 9.65576,12.16368 C10.37816,12.16368 11.05896,12.03648 11.65736,11.81168 C12.26056,12.27328 13.00056,12.55488 13.78616,12.63568 C13.86456,12.64368 13.93896,12.59488 13.95736,12.52288 C13.97656,12.44768 13.91736,12.40208 13.85896,12.34768 M6.67496,10.12928 C5.89656,10.12928 5.16296,9.98928 4.51896,9.74208 C3.87016,10.25008 3.07336,10.55968 2.22616,10.64848 C2.22056,10.64928 2.21416,10.64928 2.20856,10.64928 C2.13096,10.64928 2.06056,10.59808 2.04216,10.52448 C2.02216,10.44208 2.08536,10.39168 2.14856,10.33088 C2.45896,10.03248 2.83576,9.79728 2.98296,8.79328 C2.39096,8.22528 2.03816,7.51568 2.03816,6.74608 C2.03816,4.87808 4.11416,3.36368 6.67496,3.36368 C9.23576,3.36368 11.31176,4.87808 11.31176,6.74608 C11.31176,8.61568 9.23576,10.12928 6.67496,10.12928" id="Fill-3" fill="#FFFFFF"></path>
                <path d="M6.59024,4.9172 L6.12304,5.8652 L5.07744,6.0172 C4.88944,6.0444 4.81424,6.2764 4.95024,6.4084 L5.70704,7.146 L5.52784,8.186 C5.49584,8.3748 5.69344,8.5164 5.85984,8.4284 L6.79504,7.9364 L7.73104,8.4284 C7.89664,8.5156 8.09504,8.3748 8.06304,8.186 L7.88384,7.146 L8.64064,6.4084 C8.77664,6.2764 8.70144,6.0444 8.51344,6.0172 L7.46784,5.8652 L7.00064,4.9172 C6.91664,4.7484 6.67424,4.7468 6.59024,4.9172" id="Fill-5" fill="#F4A622"></path>
            </g>
        </g>
    </g>
</svg>