<svg id="Layer_1" data-name="Layer 1" xmlns="http://www.w3.org/2000/svg" viewBox="0 0 20 20"><defs><style>.cls-1{fill:#fff;}.cls-2{fill:#0082c6;}</style></defs><title>Untitled-1</title><path class="cls-1" d="M1.45,19.5c.94-.58,1.76-1.12,2.62-1.61a2.14,2.14,0,0,1,1-.29c1.8,0,3.59,0,5.39,0a14.67,14.67,0,0,0,1.9-.15,6.58,6.58,0,0,0,5.41-4.17,11.93,11.93,0,0,0,.64-6.53,6.67,6.67,0,0,0-4.88-5.7A12.46,12.46,0,0,0,7.36.73a6.5,6.5,0,0,0-5,3.84,9.39,9.39,0,0,0-.91,4c0,3.46,0,6.92,0,10.37Z"/><path class="cls-2" d="M15.93,5.36l-2,1.92c-.53.5-1,1-1.59,1.49-.31.28-.3.49,0,.77,1.08,1,2.15,2,3.22,3.07a3,3,0,0,0,.39.27l-.09.14c-1,0-2,0-3,0-.13,0-.28-.14-.39-.25-.74-.74-1.5-1.48-2.21-2.25a1.56,1.56,0,0,0-1.47-.39c-.08,0-.19.23-.2.36,0,.67,0,1.34,0,2,0,.41-.16.56-.56.55-.57,0-1.15,0-1.76,0V10.06H5.07a.89.89,0,0,1-1-1c0-.27,0-.53,0-.85h2.2V5.3c.7,0,1.36,0,2,0,.12,0,.29.31.3.48,0,.67,0,1.33,0,2,0,.31.1.4.4.42a1.65,1.65,0,0,0,1.42-.54c.67-.74,1.39-1.42,2.1-2.11a.9.9,0,0,1,.53-.27c.89,0,1.78,0,2.67,0A1.07,1.07,0,0,1,15.93,5.36Z"/></svg>