<svg xmlns="http://www.w3.org/2000/svg" xmlns:xlink="http://www.w3.org/1999/xlink" width="20" height="20" viewBox="0 0 20 20">
    <defs>
        <path id="a" d="M0 0h20v20H0z"/>
    </defs>
    <g fill="none" fill-rule="evenodd">
        <mask id="b" fill="#fff">
            <use xlink:href="#a"/>
        </mask>
        <path fill="#FFF" d="M20 10c0 5.522-4.478 10-10 10S0 15.522 0 10 4.478 0 10 0s10 4.478 10 10" mask="url(#b)"/>
        <g fill="#D53F31" fill-rule="nonzero" mask="url(#b)">
            <path d="M17.44 7.463l.246-1.374a.412.412 0 0 0-.406-.485h-2.569l.502-2.812a.412.412 0 0 0-.405-.484h-1.396c-.2 0-.37.143-.405.34l-.528 2.956H9.09l.503-2.812a.412.412 0 0 0-.406-.484H7.793c-.2 0-.371.143-.406.34l-.528 2.956H4.143c-.2 0-.371.144-.406.34l-.245 1.374a.412.412 0 0 0 .405.484h2.57l-.786 4.396H2.965c-.2 0-.37.143-.405.34l-.246 1.373a.412.412 0 0 0 .406.485h2.569l-.502 2.812a.412.412 0 0 0 .405.484h1.396c.2 0 .37-.143.405-.34l.528-2.956h3.388l-.503 2.812a.412.412 0 0 0 .406.484h1.395c.2 0 .371-.143.406-.34l.528-2.956h2.716c.2 0 .371-.144.406-.34l.245-1.374a.412.412 0 0 0-.405-.484h-2.57l.786-4.396h2.716c.2 0 .37-.143.405-.34zm-6.139 4.735H7.914l.785-4.396h3.387l-.785 4.396z"/>
        </g>
    </g>
</svg>
