<svg xmlns="http://www.w3.org/2000/svg" xmlns:xlink="http://www.w3.org/1999/xlink" viewBox="0 0 575.91 85.98"><defs><style>.cls-1{fill:#faa71b;}.cls-2{fill:#4d505b;}.cls-3{fill:url(#linear-gradient);}</style><linearGradient id="linear-gradient" x1="474.46" y1="32.85" x2="575.91" y2="32.85" gradientUnits="userSpaceOnUse"><stop offset="0" stop-color="#005b9e"/><stop offset="1" stop-color="#0b83c6"/></linearGradient></defs><title>logo kaskus 4</title><g id="Layer_2" data-name="Layer 2"><g id="Layer_1-2" data-name="Layer 1"><polygon class="cls-1" points="497.65 85.98 474.46 65.7 504.41 65.7 497.65 85.98"/><path class="cls-2" d="M235,41.14c-1-5.84-4.44-11.44-14.3-12.2H187.24a4.58,4.58,0,0,1-2.81-.95,4.06,4.06,0,0,1-1.71-2.68,4.66,4.66,0,0,1,4.52-5.6H208c6.16,0,7.7,1.06,8.06,3.54a2.46,2.46,0,0,0,2.44,2.13h14.47V23.64c0-9.61-1.81-16.19-21.19-16.19H181.84a30.76,30.76,0,0,0-4,.3A14.4,14.4,0,0,0,166.3,20.38,42.26,42.26,0,0,0,166,25a31.39,31.39,0,0,0,.39,4.79c.09.53.21,1.07.34,1.61a13.5,13.5,0,0,0,.86,2.54c1.87,4.35,7.05,7.5,13.09,8,.25,0,33,0,33.47,0,2.54.21,4.6,1.71,4.6,4.61a4.37,4.37,0,0,1-2.07,3.77,5.54,5.54,0,0,1-2.85.86H190.18c-4.17,0-6.49-.34-7.1-4.14v0a2.46,2.46,0,0,0-2.43-2.12H166.11V48.7c0,11.88,6.13,14.76,21.41,14.76h32.07a29.18,29.18,0,0,0,4-.3,14.4,14.4,0,0,0,11.53-12.63,40.87,40.87,0,0,0,.26-4.59,34.51,34.51,0,0,0-.39-4.79"/><path class="cls-2" d="M57.16,37.09a2.46,2.46,0,0,1,0-3.53L84,8H62.67a2.43,2.43,0,0,0-1.77.76h0L42.5,27.44h0a6.07,6.07,0,0,1-3.86,1.5H33a1.24,1.24,0,0,1-1.25-1.24v0h0V10.41a2.46,2.46,0,0,0-2.31-2.35h-14V29H0v6.86A6.13,6.13,0,0,0,6.14,42h9.33v20.9H29.33a2.46,2.46,0,0,0,2.45-2.43V43.17h0A1.23,1.23,0,0,1,33,42l5.43,0a6.07,6.07,0,0,1,4.18,1.66l18.3,18.52a2.47,2.47,0,0,0,1.73.71H84L57.16,37.1Z"/><path class="cls-2" d="M114.93,41.67l10.81-21.24,10.81,21.24Zm31.7,19.86a2.52,2.52,0,0,0,2.13,1.32H165.2L138,9.38A2.48,2.48,0,0,0,135.8,8H115.65a2.45,2.45,0,0,0-2.14,1.24L86.27,62.86h16.39a2.46,2.46,0,0,0,2.19-1.35L108.67,54a1.27,1.27,0,0,1,1.13-.71h31.85a1.25,1.25,0,0,1,1.13.71l3.84,7.56Z"/><path class="cls-2" d="M456.68,41.14c-1-5.84-4.44-11.44-14.3-12.2H408.91A4.59,4.59,0,0,1,406.1,28a4.05,4.05,0,0,1-1.7-2.68,4.71,4.71,0,0,1-.1-1,4.62,4.62,0,0,1,4.62-4.62h20.72c6.17,0,7.69,1.06,8.07,3.54a2.44,2.44,0,0,0,2.43,2.13h14.48V23.64c0-9.61-1.82-16.19-21.2-16.19H403.5a30.6,30.6,0,0,0-4,.3A14.39,14.39,0,0,0,388,20.38,44.58,44.58,0,0,0,387.7,25a31.13,31.13,0,0,0,.39,4.79c.08.53.2,1.07.34,1.61a12.36,12.36,0,0,0,.86,2.54c1.86,4.35,7.05,7.5,13.09,8,.24,0,33,0,33.46,0,2.54.21,4.6,1.71,4.6,4.61a4.36,4.36,0,0,1-2.07,3.77,5.56,5.56,0,0,1-2.84.86H411.84c-4.17,0-6.49-.34-7.1-4.14v0a2.44,2.44,0,0,0-2.43-2.12H387.77V48.7c0,11.88,6.14,14.76,21.42,14.76h32.06a29.06,29.06,0,0,0,4-.3A14.39,14.39,0,0,0,456.8,50.52a41.33,41.33,0,0,0,.26-4.59,32,32,0,0,0-.38-4.79"/><path class="cls-2" d="M240.3,62.86h13.84a2.46,2.46,0,0,0,2.46-2.43V43.17h0A1.23,1.23,0,0,1,257.85,42l5.43,0a6.11,6.11,0,0,1,4.19,1.66l18.29,18.52a2.46,2.46,0,0,0,1.73.71h21.3L282,37.1h0a2.41,2.41,0,0,1-.76-1.77,2.45,2.45,0,0,1,.75-1.76L308.84,8H287.49a2.45,2.45,0,0,0-1.77.75h0l-18.4,18.64h0a6.07,6.07,0,0,1-3.87,1.5h-5.58a1.24,1.24,0,0,1-1.25-1.24v0h0V10.41a2.46,2.46,0,0,0-2.3-2.35h-14Z"/><path class="cls-2" d="M368.34,8.12a2.47,2.47,0,0,0-2.46,2.46V43.37a6.13,6.13,0,0,1-6.07,6.07H337.45a6.12,6.12,0,0,1-6.07-6.07h0V10.49a2.46,2.46,0,0,0-2.45-2.37h-14.8V47.86a16,16,0,0,0,15.37,15.65h37.71a16,16,0,0,0,15.94-15.66h0V8.12Z"/><path class="cls-3" d="M474.46,0V65.7H575.91V0Zm84.76,18L546,52.79H532.76l-11.1-29.07h-10.8V52.79H497.14V23.72H488.5V11.39h37.18a8.19,8.19,0,0,1,7.82,5.86l2.67,9.13c.66,2.25,1.15,4.17,1.47,5.71s1.45,5.44,1.45,5.44a52.34,52.34,0,0,0,2.09-5.6c.36-1.59.83-3.34,1.39-5.19l4.65-15.35h7.49A4.84,4.84,0,0,1,559.22,18Z"/></g></g></svg>