<?xml version="1.0" encoding="UTF-8"?>
<svg width="134px" height="12px" viewBox="0 0 134 12" version="1.1" xmlns="http://www.w3.org/2000/svg" xmlns:xlink="http://www.w3.org/1999/xlink">
    <!-- Generator: Sketch 50.2 (55047) - http://www.bohemiancoding.com/sketch -->
    <title>Group</title>
    <desc>Created with Sketch.</desc>
    <defs>
        <polygon id="path-1" points="0 0.265971429 13.6562261 0.265971429 13.6562261 8.72111429 0 8.72111429"></polygon>
        <polygon id="path-3" points="0.0485411236 0.00522857143 6.62020225 0.00522857143 6.62020225 8.76265714 0.0485411236 8.76265714"></polygon>
    </defs>
    <g id="Podcast" stroke="none" stroke-width="1" fill="none" fill-rule="evenodd">
        <g id="web-widget-a" transform="translate(-217.000000, -303.000000)">
            <g id="Group" transform="translate(217.000000, 303.000000)">
                <path d="M38.1967753,8.15882857 C38.0335663,7.25825714 37.474982,6.39511429 35.8718,6.27768571 C35.8335573,6.27682857 30.4431438,6.27768571 30.4323034,6.27768571 C30.2612652,6.27768571 30.102573,6.22425714 29.9761011,6.1314 C29.8342719,6.03768571 29.7346,5.90197143 29.6984652,5.71797143 C29.6873236,5.66882857 29.6828067,5.61854286 29.6828067,5.5674 C29.6828067,5.17311429 30.0188607,4.85425714 30.4323034,4.85425714 L33.800973,4.85425714 C34.802209,4.85425714 35.0524427,5.01797143 35.1102584,5.3994 C35.1364562,5.58511429 35.3044831,5.72797143 35.5071393,5.72797143 L35.5164742,5.72797143 L35.5255079,5.72797143 L37.8592157,5.72797143 L37.8592157,5.45968571 C37.8592157,3.9774 37.5647169,2.9634 34.4158674,2.9634 L29.5548292,2.9634 C29.4476292,2.9634 29.0646,2.97854286 28.9028966,3.00968571 C28.0269281,3.18654286 27.1431303,3.85882857 27.0284022,4.95682857 C27.0211753,5.03625714 26.9844382,5.3154 26.9859438,5.66511429 C26.9763079,5.92368571 27.0347258,6.32768571 27.0485775,6.40311429 C27.0639348,6.48482857 27.0817011,6.56825714 27.103382,6.65082857 C27.1383124,6.79082857 27.1843843,6.92054286 27.2437056,7.04311429 C27.5475393,7.71425714 28.3900831,8.19997143 29.3714449,8.28425714 C29.4126989,8.28425714 34.7425865,8.27797143 34.8112427,8.28425714 C35.2246854,8.3174 35.5595348,8.54854286 35.5595348,8.99568571 C35.5595348,9.30082857 35.3866899,9.46597143 35.2234809,9.57625714 C35.0355798,9.7074 34.7609551,9.70882857 34.7609551,9.70882857 L30.9098854,9.70882857 C30.2323573,9.70882857 29.8553506,9.65682857 29.7562809,9.07054286 L29.7562809,9.0674 C29.7285775,8.88282857 29.5623573,8.74054286 29.3609056,8.74054286 C29.3563888,8.74054286 29.3530764,8.74082857 29.3485596,8.74082857 C29.3452472,8.74082857 29.3428382,8.74054286 29.3380202,8.74054286 L29.3329011,8.74054286 L26.9982899,8.74054286 L26.9982899,9.32425714 C26.9982899,11.1556857 27.9947079,11.5999714 30.4780742,11.5999714 L35.6905236,11.5999714 C35.7974225,11.5999714 36.1804517,11.5854 36.3421551,11.5531143 C37.2181236,11.3774 38.1004157,10.7031143 38.2166494,9.60511429 C38.2241775,9.52654286 38.2609146,9.24768571 38.259409,8.89682857 C38.2669371,8.64082857 38.2091213,8.23425714 38.1967753,8.15882857" id="Fill-1" fill="#58595B"></path>
                <g id="Group-5" transform="translate(0.000000, 2.786429)">
                    <mask id="mask-2" fill="white">
                        <use xlink:href="#path-1"></use>
                    </mask>
                    <g id="Clip-4"></g>
                    <path d="M9.28963281,4.74768571 C9.21344854,4.67997143 9.16707551,4.58254286 9.16707551,4.47482857 C9.16707551,4.36854286 9.2116418,4.27197143 9.28812719,4.2034 L13.6562261,0.265971429 L10.1854755,0.265971429 C10.0725542,0.265971429 9.96866652,0.310257143 9.8969991,0.382542857 L9.89549348,0.382542857 L6.9068418,3.25882857 L6.90533618,3.2594 C6.73700809,3.39911429 6.51779011,3.48568571 6.27779461,3.4914 L5.36990697,3.4914 C5.25698562,3.4914 5.16694966,3.40511429 5.16694966,3.30054286 L5.16694966,3.29768571 L5.16514292,3.29768571 L5.16514292,0.632542857 C5.15610921,0.439114286 4.99440584,0.281685714 4.78994292,0.270828571 L2.5155564,0.270828571 L2.5155564,3.49282857 L-3.01123596e-05,3.49282857 L-3.01123596e-05,4.54711429 L-3.01123596e-05,4.55025714 C-3.01123596e-05,5.07482857 0.445933933,5.49768571 0.998194607,5.49768571 L2.5155564,5.49768571 L2.5155564,8.72111429 L4.75922831,8.72111429 L4.7667564,8.72111429 C4.98507101,8.72111429 5.16213169,8.5534 5.16514292,8.34597143 L5.16514292,5.68454286 L5.16694966,5.68454286 C5.17116539,5.58197143 5.25819011,5.50082857 5.36840135,5.50082857 C5.36840135,5.50082857 6.24587551,5.49768571 6.25069348,5.49768571 C6.51297213,5.49768571 6.75266652,5.59568571 6.92972719,5.75454286 L9.90452719,8.61111429 C9.97800135,8.67911429 10.077071,8.72111429 10.1854755,8.72111429 L13.6471924,8.72111429 L9.28963281,4.74911429 L9.28963281,4.74768571 Z" id="Fill-3" fill="#58595B" mask="url(#mask-2)"></path>
                </g>
                <path d="M23.8323969,11.3033429 C23.8995474,11.4219143 24.0293317,11.5024857 24.178689,11.5073429 L26.8499564,11.5073429 L22.429462,3.26105714 C22.3626126,3.13762857 22.2280103,3.05248571 22.0711249,3.05248571 L20.4820957,3.05248571 L20.399889,3.05248571 L18.7970081,3.05248571 C18.6473497,3.05248571 18.5175654,3.12962857 18.4492103,3.2442 L14.0223924,11.5073429 L16.6861317,11.5073429 C16.8418126,11.5073429 16.9758126,11.4219143 17.0417587,11.2993429 L17.6629766,10.1370571 C17.6967025,10.0722 17.7668643,10.0270571 17.8475654,10.0270571 L23.0250845,10.0270571 C23.1057856,10.0270571 23.1759474,10.0722 23.2081676,10.1367714 L23.8323969,11.3024857 L23.8323969,11.3033429 Z M18.6795699,8.2402 L20.4363249,4.96505714 L22.1933811,8.2402 L18.6795699,8.2402 Z" id="Fill-6" fill="#58595B"></path>
                <path d="M74.2245573,8.15882857 C74.0613483,7.25825714 73.5024629,6.39511429 71.8998831,6.27768571 C71.8616404,6.27682857 66.4706247,6.27768571 66.461591,6.27768571 C66.2887461,6.27768571 66.1303551,6.22425714 66.003582,6.1314 C65.8629573,6.03768571 65.762382,5.90197143 65.7274517,5.71797143 C65.7166112,5.66882857 65.7105888,5.61854286 65.7105888,5.5674 C65.7105888,5.17311429 66.0460404,4.85425714 66.461591,4.85425714 L69.8284539,4.85425714 C70.8311955,4.85425714 71.0787191,5.01797143 71.1395461,5.3994 C71.1639371,5.58511429 71.3322652,5.72797143 71.5349213,5.72797143 L71.5442562,5.72797143 L71.5532899,5.72797143 L73.8885034,5.72797143 L73.8885034,5.45968571 C73.8885034,3.9774 73.5928,2.9634 70.4433483,2.9634 L65.5808045,2.9634 C65.4754112,2.9634 65.0938876,2.97854286 64.9321843,3.00968571 C64.0547101,3.18654286 63.1706112,3.85882857 63.0561843,4.95682857 C63.0486562,5.03625714 63.0137258,5.3154 63.0137258,5.66511429 C63.0055955,5.92368571 63.0625079,6.32768571 63.077564,6.40311429 C63.0911146,6.48482857 63.1094831,6.56825714 63.1323685,6.65082857 C63.1663955,6.79082857 63.2118652,6.92054286 63.2729933,7.04311429 C63.5753213,7.71425714 64.4193708,8.19997143 65.4007326,8.28425714 C65.4404809,8.28425714 70.7703685,8.27797143 70.8393258,8.28425714 C71.2527685,8.3174 71.5867146,8.54854286 71.5867146,8.99568571 C71.5867146,9.30082857 71.4144719,9.46597143 71.2509618,9.57625714 C71.0621573,9.7074 70.7887371,9.70882857 70.7887371,9.70882857 L66.9376674,9.70882857 C66.2598382,9.70882857 65.8828315,9.65682857 65.7834607,9.07054286 L65.7834607,9.0674 C65.7578652,8.88282857 65.5916449,8.74054286 65.3883865,8.74054286 C65.3838697,8.74054286 65.3808584,8.74082857 65.3760404,8.74082857 C65.3730292,8.74082857 65.3703191,8.74054286 65.3655011,8.74054286 L65.3606831,8.74054286 L63.0257708,8.74054286 L63.0257708,9.32425714 C63.0257708,11.1556857 64.0239955,11.5999714 66.5070607,11.5999714 L71.7183056,11.5999714 C71.8267101,11.5999714 72.2082337,11.5854 72.3699371,11.5531143 C73.2459056,11.3774 74.1297034,10.7031143 74.2444315,9.60511429 C74.2534652,9.52654286 74.287191,9.24768571 74.287191,8.89682857 C74.2962247,8.64082857 74.2381079,8.23425714 74.2245573,8.15882857" id="Fill-8" fill="#58595B"></path>
                <path d="M39.0560315,11.5074571 L41.2997034,11.5074571 L41.3057258,11.5074571 C41.5258472,11.5074571 41.7029079,11.3400286 41.705618,11.1323143 L41.705618,8.47117143 L41.7074247,8.47117143 C41.7116404,8.36831429 41.7989663,8.28717143 41.9088764,8.28717143 C41.9088764,8.28717143 42.7863506,8.28431429 42.7908674,8.28431429 C43.0534472,8.28431429 43.2928404,8.38202857 43.4717079,8.54117143 L46.4450022,11.3977429 C46.5184764,11.4654571 46.6160404,11.5074571 46.7256494,11.5074571 L50.1876674,11.5074571 L45.8301079,7.53545714 L45.8301079,7.53402857 C45.7536225,7.46631429 45.7063461,7.36917143 45.7063461,7.26145714 C45.7063461,7.15517143 45.7536225,7.05831429 45.8283011,6.98974286 L50.1970022,3.0526 L46.7256494,3.0526 C46.6130292,3.0526 46.5106472,3.0966 46.4374742,3.16888571 L46.4374742,3.17002857 L43.4473169,6.04517143 L43.4458112,6.04602857 C43.2780854,6.18574286 43.0582652,6.27231429 42.8170652,6.27774286 L41.910382,6.27774286 C41.7974607,6.27774286 41.7074247,6.19174286 41.7074247,6.08688571 L41.7074247,6.08431429 L41.705618,6.08431429 L41.705618,3.41888571 C41.6965843,3.22574286 41.5348809,3.06802857 41.3316225,3.05688571 L39.0560315,3.05688571 L39.0560315,11.5074571 Z" id="Fill-10" fill="#58595B"></path>
                <path d="M59.8676769,3.0666 C59.6466521,3.0666 59.4695915,3.23717143 59.4677847,3.44602857 L59.4677847,8.50317143 C59.4632679,9.01774286 59.0236274,9.4346 58.4816049,9.43917143 L58.4816049,9.44002857 L54.8458387,9.44002857 L54.8458387,9.43917143 C54.3026117,9.4346 53.8644769,9.01831429 53.85996,8.50317143 L53.8584544,8.50317143 L53.8584544,7.98174286 L53.8584544,7.94631429 L53.8584544,3.43202857 C53.8509263,3.23031429 53.6753712,3.0666 53.4600679,3.0666 L51.0546926,3.0666 L51.0546926,9.19545714 C51.0805892,10.5026 52.1808948,11.5608857 53.5534162,11.6091714 L53.5534162,11.6100286 L59.6830881,11.6100286 C61.0965622,11.6086 62.2456499,10.5314571 62.2730521,9.19545714 L62.2748589,9.19545714 L62.2748589,3.0666 L59.8676769,3.0666 Z" id="Fill-12" fill="#58595B"></path>
                <path d="M81.7034135,5.69957143 C81.7034135,5.20271429 81.548636,4.84957143 81.239382,4.64042857 C80.9301281,4.43157143 80.4663978,4.32671429 79.8478899,4.32671429 C79.7819438,4.32671429 79.6973281,4.32871429 79.5943438,4.33271429 C79.4910584,4.33671429 79.3859663,4.34071429 79.2787663,4.34471429 C79.1715663,4.34871429 79.0703888,4.35271429 78.975836,4.35642857 C78.8806809,4.36042857 78.8044966,4.36642857 78.746982,4.37414286 L78.746982,7.191 C78.7963663,7.191 78.8725506,7.193 78.975836,7.19671429 C79.0788202,7.20071429 79.1860202,7.20471429 79.297436,7.20871429 C79.4085506,7.21271429 79.5157506,7.21671429 79.619036,7.22042857 C79.7220202,7.22442857 79.7982045,7.22642857 79.8478899,7.22642857 C80.515782,7.22642857 80.9921596,7.10814286 81.2767213,6.87128571 C81.5612831,6.63442857 81.7034135,6.27957143 81.7034135,5.80614286 L81.7034135,5.69957143 Z M83.1382674,7.12014286 C82.9434404,7.47385714 82.6826674,7.75871429 82.3556472,7.97471429 C82.0283258,8.191 81.6495124,8.34414286 81.2189056,8.43442857 C80.7882989,8.525 80.3326989,8.56985714 79.8527079,8.56985714 C79.6867888,8.56985714 79.4961775,8.56414286 79.2811753,8.55214286 C79.0655708,8.54042857 78.8876067,8.53071429 78.746982,8.52271429 L78.746982,11.599 C78.746982,11.6621429 78.7237955,11.717 78.678627,11.7641429 C78.6328562,11.8112857 78.5771483,11.835 78.5109011,11.835 L77.2684652,11.835 C77.202218,11.835 77.1444022,11.8112857 77.0947169,11.7641429 C77.0450315,11.717 77.0203393,11.6621429 77.0203393,11.599 L77.0203393,3.48985714 C77.0203393,3.37214286 77.0552697,3.28785714 77.1257326,3.23642857 C77.1961955,3.18557143 77.2934584,3.15214286 77.4178225,3.13614286 C77.740627,3.08928571 78.113418,3.05185714 78.5355933,3.02442857 C78.9580697,2.997 79.3968067,2.983 79.8527079,2.983 C80.3326989,2.983 80.7882989,3.02642857 81.2189056,3.11271429 C81.6495124,3.19928571 82.0283258,3.34842857 82.3556472,3.56071429 C82.6826674,3.77271429 82.9434404,4.05385714 83.1382674,4.40328571 C83.3327933,4.753 83.4300562,5.18728571 83.4300562,5.70585714 L83.4300562,5.81185714 C83.4300562,6.33042857 83.3327933,6.76671429 83.1382674,7.12014286 Z" id="Fill-14" fill="#0082C6"></path>
                <path d="M102.604282,6.59408571 C102.604282,6.15322857 102.548574,5.78894286 102.437158,5.5018 C102.325742,5.21437143 102.173073,4.98608571 101.97945,4.81694286 C101.785527,4.64751429 101.556673,4.52951429 101.292587,4.46265714 C101.028803,4.39551429 100.739724,4.36208571 100.426255,4.36208571 C100.195293,4.36208571 99.9974548,4.36608571 99.8324391,4.3738 C99.6674234,4.3818 99.5189694,4.3898 99.3867762,4.39751429 L99.3867762,10.5266571 C99.5189694,10.5346571 99.6674234,10.5423714 99.8324391,10.5500857 C99.9974548,10.5580857 100.195293,10.5618 100.426255,10.5618 C100.739724,10.5618 101.028803,10.5286571 101.292587,10.4615143 C101.556673,10.3946571 101.785527,10.2766571 101.97945,10.1072286 C102.173073,9.93808571 102.325742,9.7098 102.437158,9.42237143 C102.548574,9.13522857 102.604282,8.77094286 102.604282,8.33008571 L102.604282,6.59408571 Z M103.318547,11.0040857 C102.643428,11.6209429 101.680736,11.9292286 100.430471,11.9292286 C100.206736,11.9292286 99.9727627,11.9252286 99.7285515,11.9172286 C99.4843402,11.9095143 99.2479582,11.8975143 99.0206099,11.8820857 C98.7926593,11.8660857 98.5857874,11.8503714 98.3993919,11.8349429 C98.2129964,11.8192286 98.0741784,11.8035143 97.9832391,11.7878 C97.8754369,11.7720857 97.7947357,11.7366571 97.7411357,11.6818 C97.6869335,11.6266571 97.6604346,11.5403714 97.6604346,11.4223714 L97.6604346,3.4898 C97.6604346,3.37208571 97.6869335,3.28551429 97.7411357,3.23065714 C97.7947357,3.1758 97.8754369,3.14037143 97.9832391,3.12437143 C98.0741784,3.10894286 98.2129964,3.09322857 98.3993919,3.07722857 C98.5857874,3.0618 98.7926593,3.04608571 99.0206099,3.03008571 C99.2479582,3.01465714 99.4843402,3.00265714 99.7285515,2.99494286 C99.9727627,2.98694286 100.206736,2.98294286 100.430471,2.98294286 C101.680736,2.98294286 102.643428,3.29151429 103.318547,3.90837143 C103.993365,4.52522857 104.330924,5.41894286 104.330924,6.5898 L104.330924,8.32237143 C104.330924,9.49322857 103.993365,10.3872286 103.318547,11.0040857 Z" id="Fill-16" fill="#0082C6"></path>
                <path d="M111.36201,11.6521429 C111.312324,11.6875714 111.245776,11.717 111.163268,11.7407143 C111.113583,11.7484286 111.028666,11.7641429 110.908518,11.7878571 C110.788369,11.8112857 110.641421,11.833 110.467673,11.8527143 C110.293623,11.8721429 110.099098,11.8898571 109.883794,11.9055714 C109.66819,11.9212857 109.44054,11.9292857 109.200545,11.9292857 C108.827754,11.9292857 108.434486,11.8781429 108.020441,11.7761429 C107.606396,11.6738571 107.228787,11.4872857 106.887614,11.2161429 C106.546441,10.945 106.262482,10.5778571 106.036338,10.1141429 C105.810194,9.65042857 105.697273,9.05328571 105.697273,8.32242857 L105.697273,6.58985714 C105.697273,5.85128571 105.810194,5.24814286 106.036338,4.78042857 C106.262482,4.313 106.546441,3.94557143 106.887614,3.67842857 C107.228787,3.41157143 107.606396,3.22871429 108.020441,3.13042857 C108.434486,3.03242857 108.827754,2.983 109.200545,2.983 C109.44054,2.983 109.66819,2.991 109.883794,3.00671429 C110.099098,3.02242857 110.293623,3.04014286 110.467673,3.05957143 C110.641421,3.07957143 110.788369,3.099 110.908518,3.11871429 C111.028666,3.13842857 111.113583,3.15614286 111.163268,3.17157143 C111.245776,3.19528571 111.312324,3.22471429 111.36201,3.26014286 C111.411695,3.29528571 111.436689,3.35642857 111.436689,3.44271429 L111.436689,4.23242857 C111.436689,4.30328571 111.418019,4.36214286 111.38068,4.40928571 C111.34334,4.45642857 111.279201,4.47985714 111.18796,4.47985714 L111.163268,4.47985714 C111.055466,4.47242857 110.92508,4.46214286 110.772109,4.45042857 C110.618536,4.43871429 110.455026,4.429 110.281277,4.421 C110.107228,4.41328571 109.929264,4.40528571 109.747084,4.39757143 C109.564904,4.38985714 109.390855,4.38557143 109.225237,4.38557143 C108.96868,4.38557143 108.728383,4.421 108.504949,4.49185714 C108.281214,4.56242857 108.090603,4.68442857 107.933417,4.85728571 C107.775929,5.03014286 107.651866,5.25785714 107.560626,5.54071429 C107.469385,5.82385714 107.424217,6.17328571 107.424217,6.58985714 L107.424217,8.32242857 C107.424217,8.731 107.469385,9.07671429 107.560626,9.35985714 C107.651866,9.64242857 107.775929,9.87071429 107.933417,10.0432857 C108.090603,10.2164286 108.281214,10.3401429 108.504949,10.4144286 C108.728383,10.4892857 108.96868,10.5267143 109.225237,10.5267143 C109.390855,10.5267143 109.564904,10.5227143 109.747084,10.5147143 C109.929264,10.507 110.107228,10.499 110.281277,10.4912857 C110.455026,10.4835714 110.618536,10.4735714 110.772109,10.4615714 C110.92508,10.4498571 111.055466,10.4401429 111.163268,10.4321429 L111.18796,10.4321429 C111.279201,10.4321429 111.34334,10.4558571 111.38068,10.503 C111.418019,10.5501429 111.436689,10.609 111.436689,10.6798571 L111.436689,11.4695714 C111.436689,11.5561429 111.411695,11.6167143 111.36201,11.6521429" id="Fill-18" fill="#0082C6"></path>
                <path d="M116.218953,4.55071429 C116.202391,4.47985714 116.181613,4.431 116.156921,4.40328571 C116.131928,4.37585714 116.086458,4.36214286 116.020211,4.36214286 C115.953964,4.36214286 115.908494,4.37585714 115.883501,4.40328571 C115.858809,4.431 115.838031,4.47985714 115.82147,4.55071429 L114.926831,8.05128571 L117.11329,8.05128571 L116.218953,4.55071429 Z M119.796602,11.6344286 C119.796602,11.6975714 119.775825,11.7464286 119.734571,11.7818571 C119.693016,11.8172857 119.639115,11.835 119.573169,11.835 L118.256355,11.835 C118.198238,11.835 118.148553,11.8152857 118.107299,11.7761429 C118.065744,11.7367143 118.036836,11.6895714 118.020274,11.6344286 L117.448742,9.395 L114.591681,9.395 L114.020148,11.6344286 C114.003587,11.6895714 113.974679,11.7367143 113.933425,11.7761429 C113.891569,11.8152857 113.841883,11.835 113.784369,11.835 L112.467555,11.835 C112.401007,11.835 112.347407,11.8172857 112.305852,11.7818571 C112.264297,11.7464286 112.24382,11.6975714 112.24382,11.6344286 C112.24382,11.6267143 112.245627,11.619 112.249843,11.611 C112.254058,11.6032857 112.256166,11.5915714 112.256166,11.5755714 L114.293569,4.18528571 C114.368247,3.91042857 114.475447,3.69414286 114.616373,3.537 C114.757299,3.37985714 114.908463,3.26014286 115.069865,3.17757143 C115.231267,3.095 115.396885,3.04214286 115.566719,3.01842857 C115.736252,2.995 115.887717,2.983 116.020211,2.983 C116.152706,2.983 116.30387,2.995 116.473703,3.01842857 C116.643236,3.04214286 116.808854,3.095 116.970557,3.17757143 C117.13196,3.26014286 117.283124,3.37985714 117.423748,3.537 C117.564674,3.69414286 117.672476,3.91042857 117.746854,4.18528571 L119.784256,11.5755714 C119.784256,11.5915714 119.786063,11.6032857 119.790279,11.611 C119.794494,11.619 119.796602,11.6267143 119.796602,11.6344286 Z" id="Fill-20" fill="#0082C6"></path>
                <path d="M126.554508,9.46574286 C126.554508,9.76431429 126.500607,10.0608857 126.392805,10.3557429 C126.285304,10.6503143 126.105232,10.9137429 125.852589,11.1454571 C125.599947,11.3771714 125.264495,11.5657429 124.846535,11.7111714 C124.427973,11.8563143 123.908535,11.9291714 123.287317,11.9291714 C122.815457,11.9291714 122.405326,11.9094571 122.057529,11.8703143 C121.709731,11.8308857 121.386625,11.7800286 121.088513,11.7168857 C121.022266,11.7014571 120.966257,11.6740286 120.921088,11.6346 C120.875317,11.5954571 120.852432,11.5443143 120.852432,11.4811714 L120.852432,10.6326 C120.852432,10.5697429 120.875317,10.5168857 120.921088,10.4734571 C120.966257,10.4303143 121.022266,10.4086 121.088513,10.4086 L121.113506,10.4086 C121.237569,10.4246 121.401079,10.4380286 121.604338,10.4500286 C121.806994,10.4617429 122.015973,10.4734571 122.231578,10.4851714 C122.44658,10.4971714 122.651645,10.5071714 122.846472,10.5146 C123.040998,10.5226 123.196077,10.5266 123.312311,10.5266 C123.86698,10.5266 124.245794,10.4363143 124.448751,10.2554571 C124.651708,10.0748857 124.753187,9.81145714 124.753187,9.46574286 C124.753187,9.34774286 124.736625,9.24374286 124.703502,9.15345714 C124.670378,9.06317143 124.614369,8.97488571 124.535776,8.88831429 C124.457182,8.80174286 124.34938,8.71345714 124.212971,8.62288571 C124.076261,8.5326 123.90432,8.4286 123.697448,8.3106 L122.057529,7.37945714 C121.767547,7.2146 121.529659,7.04945714 121.343263,6.88431429 C121.156868,6.71945714 121.007812,6.5486 120.896095,6.37174286 C120.784077,6.19488571 120.705484,6.01031429 120.660014,5.81774286 C120.614243,5.62545714 120.591659,5.42688571 120.591659,5.2226 C120.591659,4.90031429 120.64556,4.60202857 120.753061,4.32688571 C120.860863,4.05174286 121.03672,3.81402857 121.281232,3.61374286 C121.525443,3.41317143 121.844333,3.25802857 122.2376,3.14802857 C122.630868,3.03802857 123.117484,2.98317143 123.697448,2.98317143 C123.90432,2.98317143 124.123839,2.98888571 124.355704,3.00088571 C124.587569,3.0126 124.81552,3.03031429 125.038953,3.05374286 C125.262387,3.07745714 125.465344,3.10088571 125.647524,3.1246 C125.829704,3.14802857 125.974845,3.17174286 126.082347,3.19517143 C126.148594,3.21088571 126.202495,3.2366 126.24405,3.27174286 C126.285304,3.30717143 126.306081,3.35631429 126.306081,3.41917143 L126.306081,4.29145714 C126.306081,4.35431429 126.287412,4.40545714 126.250072,4.4446 C126.212733,4.48402857 126.16094,4.50345714 126.094994,4.50345714 L126.07,4.50345714 C125.655956,4.46431429 125.245825,4.43488571 124.840212,4.41517143 C124.434297,4.39545714 124.028382,4.38574286 123.622769,4.38574286 C123.159039,4.38574286 122.825695,4.4586 122.622738,4.60374286 C122.41978,4.74917143 122.318603,4.95545714 122.318603,5.2226 C122.318603,5.31688571 122.332756,5.40517143 122.361964,5.48774286 C122.390872,5.57031429 122.444773,5.6526 122.523367,5.73517143 C122.60196,5.81774286 122.707654,5.90031429 122.840149,5.98288571 C122.972342,6.06545714 123.138261,6.16174286 123.337003,6.27145714 L124.827866,7.06117143 C125.167232,7.24202857 125.448782,7.42488571 125.672517,7.60917143 C125.895951,7.79402857 126.073915,7.9846 126.206711,8.18088571 C126.338904,8.37745714 126.430144,8.58174286 126.47983,8.79374286 C126.529515,9.00602857 126.554508,9.23002857 126.554508,9.46574286" id="Fill-22" fill="#0082C6"></path>
                <g id="Group-26" transform="translate(127.375281, 3.072143)">
                    <mask id="mask-4" fill="white">
                        <use xlink:href="#path-3"></use>
                    </mask>
                    <g id="Clip-25"></g>
                    <path d="M6.54558382,1.31351429 C6.49589843,1.35294286 6.43778157,1.37265714 6.37153438,1.37265714 L4.19772315,1.37265714 L4.19772315,8.52694286 C4.19772315,8.59008571 4.17303101,8.64494286 4.12334562,8.69208571 C4.07366022,8.73922857 4.01554337,8.76265714 3.94929618,8.76265714 L2.71950742,8.76265714 C2.6529591,8.76265714 2.59514337,8.73922857 2.54545798,8.69208571 C2.49577258,8.64494286 2.47108045,8.59008571 2.47108045,8.52694286 L2.47108045,1.37265714 L0.297269213,1.37265714 C0.230720899,1.37265714 0.172905169,1.35294286 0.123219775,1.31351429 C0.073534382,1.27437143 0.0485411236,1.22322857 0.0485411236,1.16037143 L0.0485411236,0.229228571 C0.0485411236,0.166371429 0.073534382,0.113228571 0.123219775,0.0700857143 C0.172905169,0.0269428571 0.230720899,0.00522857143 0.297269213,0.00522857143 L6.37153438,0.00522857143 C6.43778157,0.00522857143 6.49589843,0.0269428571 6.54558382,0.0700857143 C6.59526921,0.113228571 6.62026247,0.166371429 6.62026247,0.229228571 L6.62026247,1.16037143 C6.62026247,1.22322857 6.59526921,1.27437143 6.54558382,1.31351429" id="Fill-24" fill="#0082C6" mask="url(#mask-4)"></path>
                </g>
                <path d="M85.8844243,6.0274 L85.3562535,6.0274 L85.5733636,4.55911429 L85.7245276,3.6654 C85.7811389,3.42082857 85.8467838,3.20482857 85.9232692,3.00568571 C86.1822355,2.33168571 86.5595434,1.75968571 87.0446535,1.30597143 C87.5312692,0.850257143 88.1115344,0.509685714 88.7691883,0.293971429 C89.3627029,0.0988285714 90.0104198,-2.85714286e-05 90.6936692,-2.85714286e-05 C91.3766175,-2.85714286e-05 92.0240333,0.0988285714 92.617849,0.293971429 C93.275804,0.509971429 93.8560692,0.850542857 94.3423838,1.30597143 C94.8274939,1.75997143 95.2045007,2.33168571 95.4637681,3.0054 C95.7028602,3.62882857 95.8245142,4.35768571 95.8245142,5.17168571 L95.181013,5.17168571 C95.181013,4.4294 95.0729097,3.77082857 94.8591119,3.21425714 C94.6332692,2.62654286 94.3071524,2.13054286 93.8906984,1.74054286 C93.47304,1.3494 92.9737771,1.05682857 92.4076647,0.870828571 C91.8813007,0.697971429 91.304649,0.610542857 90.6936692,0.610542857 C90.0820872,0.610542857 89.5054355,0.697971429 88.9796737,0.870828571 C88.4132602,1.05682857 87.9142984,1.34911429 87.4963389,1.74054286 C87.0795838,2.13054286 86.7537681,2.62654286 86.5279254,3.21482857 C86.4607748,3.38882857 86.4029591,3.57911429 86.3559838,3.77997143 L86.2096378,4.64997143 L86.0449231,5.76454286 L85.8844243,5.74311429 L85.8844243,6.0274 Z" id="Fill-27" fill="#B11A25"></path>
                <path d="M93.9888948,4.67711429 C93.8103285,4.21282857 93.5637083,3.83282857 93.2484319,3.53768571 C92.9331555,3.24254286 92.5597622,3.02425714 92.1285533,2.88254286 C91.6970431,2.74082857 91.223978,2.66997143 90.70996,2.66997143 C90.1953398,2.66997143 89.7225757,2.74082857 89.2910656,2.88254286 C88.8598566,3.02425714 88.4864634,3.24254286 88.171187,3.53768571 C87.8559106,3.83282857 87.6089892,4.21282857 87.430724,4.67711429 C87.3358701,4.92454286 87.2681173,5.20054286 87.223551,5.50111429 L89.5482252,5.50111429 C89.7704544,5.50111429 89.9505263,5.67197143 89.9505263,5.88282857 C89.9505263,6.09368571 89.7704544,6.26454286 89.5482252,6.26454286 L87.1666387,6.26454286 C87.1660364,6.29511429 87.1633263,6.32282857 87.1633263,6.35368571 L87.1633263,7.02768571 L89.5482252,7.02768571 C89.7704544,7.02768571 89.9505263,7.19854286 89.9505263,7.4094 C89.9505263,7.61997143 89.7704544,7.79082857 89.5482252,7.79082857 L87.1633263,7.79082857 L87.1633263,7.94768571 C87.1633263,8.16082857 87.1765757,8.36054286 87.1961488,8.55425714 L89.5482252,8.55425714 C89.7704544,8.55425714 89.9505263,8.72482857 89.9505263,8.93568571 C89.9505263,9.14654286 89.7704544,9.3174 89.5482252,9.3174 L87.3349667,9.3174 C87.3641757,9.42082857 87.3942881,9.52254286 87.430724,9.61854286 C87.6089892,10.0871143 87.8559106,10.4688286 88.171187,10.7636857 C88.4864634,11.0588286 88.8598566,11.2774 89.2910656,11.4191143 C89.7225757,11.5608286 90.1953398,11.6316857 90.70996,11.6316857 C91.223978,11.6316857 91.6970431,11.5608286 92.1285533,11.4191143 C92.5597622,11.2774 92.9331555,11.0588286 93.2484319,10.7636857 C93.5637083,10.4688286 93.8103285,10.0871143 93.9888948,9.61854286 C94.16716,9.15025714 94.2562926,8.5934 94.2562926,7.94768571 L94.2562926,6.35368571 C94.2562926,5.70054286 94.16716,5.14168571 93.9888948,4.67711429" id="Fill-29" fill="#B11A25"></path>
                <path d="M86.2142148,4.18351429 L86.2142148,8.60922857 L85.6514148,8.60922857 L85.4102148,8.2658 C85.4102148,8.2658 84.2439631,8.07522857 84.2439631,6.51094286 C84.2439631,4.94665714 85.5306643,4.7178 85.5306643,4.7178 L85.6110643,4.29808571 L86.2142148,4.18351429 Z" id="Fill-31" fill="#B11A25"></path>
                <path d="M95.100613,4.18351429 L95.100613,8.60922857 L95.6637142,8.60922857 L95.9049142,8.2658 C95.9049142,8.2658 97.0708647,8.07522857 97.0708647,6.51094286 C97.0708647,4.94665714 95.7841636,4.7178 95.7841636,4.7178 L95.7037636,4.29808571 L95.100613,4.18351429 Z" id="Fill-33" fill="#B11A25"></path>
            </g>
        </g>
    </g>
</svg>