<?xml version="1.0" encoding="UTF-8"?>
<svg width="28px" height="28px" viewBox="0 0 28 28" version="1.1" xmlns="http://www.w3.org/2000/svg" xmlns:xlink="http://www.w3.org/1999/xlink">
    <!-- Generator: sketchtool 51.1 (57501) - http://www.bohemiancoding.com/sketch -->
    <title>016909B8-9B82-4EED-A45E-72F59BFEEE47</title>
    <desc>Created with sketchtool.</desc>
    <defs>
        <polygon id="path-1" points="13.73927 0 0 0 0 27.4787598 13.73927 27.4787598 27.4785399 27.4787598 27.4785399 0"></polygon>
    </defs>
    <g id="WAP" stroke="none" stroke-width="1" fill="none" fill-rule="evenodd">
        <g id="showcase-thread-detail-WAP" transform="translate(-26.000000, -5342.000000)">
            <g id="recommended" transform="translate(26.000000, 5342.000000)">
                <g id="Group-3">
                    <mask id="mask-2" fill="white">
                        <use xlink:href="#path-1"></use>
                    </mask>
                    <g id="Clip-2"></g>
                    <path d="M27.5097806,13.7550002 C27.5097806,21.3510616 21.3508417,27.5100005 13.7547804,27.5100005 C6.15871907,27.5100005 -0.000219830078,21.3510616 -0.000219830078,13.7550002 C-0.000219830078,6.1589389 6.15871907,0 13.7547804,0 C21.3508417,0 27.5097806,6.1589389 27.5097806,13.7550002" id="Fill-1" fill="#FAAA1D" mask="url(#mask-2)"></path>
                </g>
                <path d="M15.4521859,21.6561205 L10.5554709,21.6561205 C8.48137416,21.6561205 6.80077321,19.9755195 6.80077321,17.9014228 L6.80077321,13.7840054 C6.80077321,11.7110078 8.48137416,10.0293077 10.5554709,10.0293077 L15.4521859,10.0293077 C17.5262827,10.0293077 19.2068837,11.7110078 19.2068837,13.7840054 L19.2068837,17.9014228 C19.2068837,19.9755195 17.5262827,21.6561205 15.4521859,21.6561205" id="Fill-4" fill="#FFFFFF"></path>
                <path d="M19.6878719,13.1898047 L16.0694688,13.1898047 C15.1967434,13.1898047 14.4899897,12.4819518 14.4899897,11.6103256 C14.4899897,10.7376002 15.1967434,10.0297473 16.0694688,10.0297473 L19.6878719,10.0297473 C20.5605973,10.0297473 21.267351,10.7376002 21.267351,11.6103256 C21.267351,12.4819518 20.5605973,13.1898047 19.6878719,13.1898047" id="Fill-6" fill="#FFFFFF"></path>
                <path d="M19.7822889,16.0750745 L15.9748319,16.0750745 C15.1548658,16.0750745 14.4898798,15.4100885 14.4898798,14.5890231 C14.4898798,13.7690569 15.1548658,13.104071 15.9748319,13.104071 L19.7822889,13.104071 C20.6022551,13.104071 21.2683402,13.7690569 21.2683402,14.5890231 C21.2683402,15.4100885 20.6022551,16.0750745 19.7822889,16.0750745" id="Fill-8" fill="#FFFFFF"></path>
                <path d="M19.4559511,19.0113448 L15.6144205,19.0113448 C14.8043467,19.0113448 14.1459556,18.3540529 14.1459556,17.543979 L14.1459556,17.5428799 C14.1459556,16.7328061 14.8043467,16.0755141 15.6144205,16.0755141 L19.4559511,16.0755141 C20.2671241,16.0755141 20.9244161,16.7328061 20.9244161,17.5428799 L20.9244161,17.543979 C20.9244161,18.3540529 20.2671241,19.0113448 19.4559511,19.0113448" id="Fill-10" fill="#FFFFFF"></path>
                <path d="M18.5575056,21.6561205 L14.8192951,21.6561205 C13.9795442,21.6561205 13.2991702,20.9757464 13.2991702,20.1370946 C13.2991702,19.2973437 13.9795442,18.6169697 14.8192951,18.6169697 L18.5575056,18.6169697 C19.3972565,18.6169697 20.0776306,19.2973437 20.0776306,20.1370946 C20.0776306,20.9757464 19.3972565,21.6561205 18.5575056,21.6561205" id="Fill-12" fill="#FFFFFF"></path>
                <path d="M12.9587633,6.29593344 L11.4979924,13.5657141 C11.1561566,14.5351648 8.99632612,15.0429722 8.02687547,14.7022356 C7.05742483,14.361499 6.5485182,13.2986206 6.88925482,12.3291699 L9.44917608,5.0604884 C9.7899127,4.09103775 10.851692,3.58213112 11.8211426,3.92286774 C12.7905933,4.26470352 13.2994999,5.32648279 12.9587633,6.29593344" id="Fill-14" fill="#FFFFFF"></path>
            </g>
        </g>
    </g>
</svg>