<?xml version="1.0" encoding="UTF-8"?>
<svg width="38px" height="38px" viewBox="0 0 38 38" version="1.1" xmlns="http://www.w3.org/2000/svg" xmlns:xlink="http://www.w3.org/1999/xlink">
    <!-- Generator: Sketch 50.2 (55047) - http://www.bohemiancoding.com/sketch -->
    <title>CT gambar</title>
    <desc>Created with Sketch.</desc>
    <defs></defs>
    <g id="FINAL-CHANNEL" stroke="none" stroke-width="1" fill="none" fill-rule="evenodd">
        <g id="2-home-landing-dropdown-create-thread" transform="translate(-1014.000000, -137.000000)">
            <g id="CT-gambar" transform="translate(1014.000000, 137.000000)">
                <circle id="Oval" fill="#8153BB" cx="19" cy="19" r="19"></circle>
                <path d="M25.5287823,22.4262117 C25.5287823,24.1397137 24.1396929,25.5287734 22.4262206,25.5287734 L15.5729247,25.5287734 C13.8594227,25.5287734 12.470363,24.1397137 12.470363,22.4262117 L12.470363,15.5729158 C12.470363,13.8594435 13.8594227,12.4703541 15.5729247,12.4703541 L22.4262206,12.4703541 C24.1396929,12.4703541 25.5287823,13.8594435 25.5287823,15.5729158 L25.5287823,22.4262117 Z M23.5318532,10.3636453 L14.4672921,10.3636453 C12.2009144,10.3636453 10.3636542,12.2009055 10.3636542,14.4672832 L10.3636542,23.5318443 C10.3636542,25.798222 12.2009144,27.6354822 14.4672921,27.6354822 L23.5318532,27.6354822 C25.7982309,27.6354822 27.6354911,25.798222 27.6354911,23.5318443 L27.6354911,14.4672832 C27.6354911,12.2009055 25.7982309,10.3636453 23.5318532,10.3636453 L23.5318532,10.3636453 Z" id="Fill-1" fill="#FFFFFF"></path>
                <path d="M16.360935,16.3820273 C16.360935,15.6322366 15.753125,15.0244266 15.0034233,15.0244266 C14.2536029,15.0244266 13.6457632,15.6322366 13.6457632,16.3820273 C13.6457632,17.1319071 14.2536029,17.7396281 15.0034233,17.7396281 C15.753125,17.7396281 16.360935,17.1319071 16.360935,16.3820273" id="Fill-3" fill="#FFFFFF"></path>
                <polygon id="Fill-5" fill="#FFFFFF" points="24.394344 22.2834445 20.5318119 16.4255267 18.2812527 19.62294 17.0582724 18.3623574 13.607318 22.2834445"></polygon>
            </g>
        </g>
    </g>
</svg>