<svg xmlns="http://www.w3.org/2000/svg" xmlns:xlink="http://www.w3.org/1999/xlink" width="20" height="20" viewBox="0 0 20 20">
    <defs>
        <path id="prefix__a" d="M9.44 7.013l2.527 2.33H9.97c-.062.002-.122-.021-.166-.063L8.06 7.586c-.107-.097-.249-.151-.396-.152h-.516c-.063 0-.116.047-.118.108v1.605c0 .123-.105.222-.233.222H5.474V7.466h-.892c-.322 0-.582-.25-.582-.559v-.634H5.48V4.369h1.323c.117.003.214.09.225.203v1.586c0 .063.052.115.118.115h.529c.137-.006.268-.057.37-.146l1.766-1.688c.044-.046.106-.07.171-.07H12L9.44 6.692l-.01.01c-.087.088-.082.227.01.311M7.893.37c4.36 0 7.894 3.08 7.894 6.878 0 2.873-2.02 5.334-4.892 6.363l.023.023L7.96 16.64l-2.937-2.984C2.083 12.656 0 10.163 0 7.247 0 3.45 3.534.37 7.894.37z"/>
    </defs>
    <g fill="none" fill-rule="evenodd" transform="translate(2 2)">
        <mask id="prefix__b" fill="#fff">
            <use xlink:href="#prefix__a"/>
        </mask>
        <use fill="#B3B3B3" xlink:href="#prefix__a"/>
        <g fill="#0082C6" mask="url(#prefix__b)">
            <path d="M0 0H20V20H0z" transform="translate(-2 -2)"/>
        </g>
    </g>
</svg>
