<?xml version="1.0" encoding="UTF-8"?>
<svg width="20px" height="20px" viewBox="0 0 20 20" version="1.1" xmlns="http://www.w3.org/2000/svg" xmlns:xlink="http://www.w3.org/1999/xlink">
    <!-- Generator: Sketch 48.1 (47250) - http://www.bohemiancoding.com/sketch -->
    <title>icon/icons/api merah</title>
    <desc>Created with Sketch.</desc>
    <defs>
        <polygon id="path-1" points="7.76905217e-05 0.0876483516 11.9967353 0.0876483516 11.9967353 16 7.76905217e-05 16 7.76905217e-05 0.0876483516"></polygon>
    </defs>
    <g id="Symbols" stroke="none" stroke-width="1" fill="none" fill-rule="evenodd">
        <g id="icon/icons/api-merah">
            <g id="Group" transform="translate(4.000000, 1.000000)">
                <path d="M5.37530543,15.9859693 C5.37530543,15.9859693 2.05514427,14.5250406 2.76661373,11.7857991 C3.47808319,9.04655771 6.64874682,5.33333333 6.64874682,5.33333333 C6.64874682,5.33333333 10.9485125,9.59440599 10.6520076,11.4205669 C10.3555916,13.2467279 9.28838745,16.2294879 5.37530543,15.9859693" id="Fill-1" fill="#F3BB2A"></path>
                <mask id="mask-2" fill="white">
                    <use xlink:href="#path-1"></use>
                </mask>
                <g id="Clip-4"></g>
                <path d="M5.59277647,14.7253187 C5.59277647,14.7253187 3.86495294,14.7253187 3.42218824,13.0037363 C2.74048235,10.367956 6.37992353,8.0381978 6.23345294,6.31714286 C6.23345294,6.31714286 11.7032471,14.7253187 5.59277647,14.7253187 M9.25851176,2.33701099 C10.0019824,3.55547253 9.25851176,4.77323077 9.25851176,4.77323077 C8.08912941,0.75389011 4.68951176,0.0876043956 4.68951176,0.0876043956 C6.07180588,1.39898901 5.01951176,5.30738462 3.52012941,5.24153846 C2.02083529,5.17586813 3.52012941,2.24338462 3.52012941,2.24338462 C-0.411194118,5.24153846 0.0134823529,10.4427692 0.0134823529,10.4427692 C0.0170117647,10.4612308 0.0223941176,10.4787253 0.0264529412,10.4969231 C0.219776471,13.5686593 2.78054118,16.000044 5.91104118,16.000044 C8.83207059,16.000044 11.2565118,13.8832088 11.7254824,11.1047473 C11.7664235,11.0261538 11.7957176,10.9461538 11.8088647,10.8645714 C12.8449235,4.43257143 9.25851176,2.33701099 9.25851176,2.33701099" id="Fill-3" fill="#EF4136" mask="url(#mask-2)"></path>
            </g>
        </g>
    </g>
</svg>