<svg xmlns="http://www.w3.org/2000/svg" xmlns:xlink="http://www.w3.org/1999/xlink" width="20" height="20" viewBox="0 0 20 20">
    <defs>
        <path id="prefix__a" d="M9 18c-4.963 0-9-4.037-9-9s4.037-9 9-9 9 4.037 9 9-4.037 9-9 9m-3.4-6V9.397h1.167L8.1 12h1.572v-.068L8.134 9.026c.426-.192.744-.45.954-.774.21-.323.315-.728.315-1.213 0-.684-.228-1.213-.683-1.587-.456-.374-1.104-.561-1.944-.561H4.135V12H5.6zM6.78 8.21H5.6V6.078h1.176c.394 0 .686.096.877.288.19.192.285.456.285.791 0 .329-.1.587-.302.774-.202.187-.487.28-.855.28zm5.054 5.821v-2.49c.329.371.76.557 1.294.557.628 0 1.127-.245 1.496-.735.37-.49.555-1.142.555-1.956v-.073c0-.846-.181-1.51-.542-1.992-.362-.482-.868-.723-1.519-.723-.55 0-.996.205-1.338.615l-.049-.517h-1.308v7.314h1.411zm.923-3.071c-.443 0-.75-.174-.923-.523V8.274c.166-.338.47-.507.913-.507.332 0 .585.133.76.4.173.267.26.646.26 1.138 0 1.103-.336 1.655-1.01 1.655z"/>
    </defs>
    <g fill="none" fill-rule="evenodd" transform="translate(1 1)">
        <mask id="prefix__b" fill="#fff">
            <use xlink:href="#prefix__a"/>
        </mask>
        <use fill="#B3B3B3" xlink:href="#prefix__a"/>
        <g fill="#0082C6" mask="url(#prefix__b)">
            <path d="M0 0H20V20H0z" transform="translate(-1 -1)"/>
        </g>
    </g>
</svg>
