<?xml version="1.0" encoding="UTF-8"?>
<svg width="16px" height="16px" viewBox="0 0 16 16" version="1.1" xmlns="http://www.w3.org/2000/svg" xmlns:xlink="http://www.w3.org/1999/xlink">
    <!-- Generator: sketchtool 50.2 (55047) - http://www.bohemiancoding.com/sketch -->
    <title>93779D79-15BB-486A-90DF-20B8C2967D4D</title>
    <desc>Created with sketchtool.</desc>
    <defs>
        <polygon id="path-1" points="0.000128 2.27373675e-15 16 2.27373675e-15 16 15.999872 0.000128 15.999872"></polygon>
    </defs>
    <g id="Symbols" stroke="none" stroke-width="1" fill="none" fill-rule="evenodd">
        <g id="icon/title/hot-thread">
            <g id="Page-1">
                <g id="Group-3">
                    <mask id="mask-2" fill="white">
                        <use xlink:href="#path-1"></use>
                    </mask>
                    <g id="Clip-2"></g>
                    <path d="M16.000128,7.999872 C16.000128,12.418432 12.418048,15.999872 8.000128,15.999872 C3.581568,15.999872 0.000128,12.418432 0.000128,7.999872 C0.000128,3.581952 3.581568,-0.000128 8.000128,-0.000128 C12.418048,-0.000128 16.000128,3.581952 16.000128,7.999872" id="Fill-1" fill="#D53F31" mask="url(#mask-2)"></path>
                </g>
                <path d="M6.963904,12.606144 C6.963904,12.606144 4.750784,12.126144 4.750784,10.099264 C4.750784,7.593024 6.337984,7.378624 5.710784,5.993024 C5.710784,5.993024 6.864704,6.451264 7.131584,7.758144 C7.131584,7.758144 7.337024,7.166144 6.910784,6.553024 C6.483904,5.939264 6.097984,4.284224 7.884224,2.684224 C7.884224,2.684224 7.257024,4.233024 8.036544,4.979264 C8.896704,5.803584 8.830784,6.473024 8.803904,6.793024 C8.803904,6.793024 9.443904,5.539264 10.723904,5.139264 C10.723904,5.139264 10.137024,6.899264 10.723904,8.019264 C11.402944,9.315904 12.110784,11.086144 9.497024,12.819264 C9.497024,12.819264 10.083904,11.433024 9.337024,10.606144 C8.767424,9.975104 8.510784,8.819264 8.563904,8.233024 C8.563904,8.233024 7.737024,9.180864 7.994944,10.179264 C7.994944,10.179264 7.257024,10.099264 7.203904,9.406144 C7.203904,9.406144 6.110784,11.006144 6.963904,12.606144" id="Fill-4" fill="#FFFFFF"></path>
            </g>
        </g>
    </g>
</svg>