<?xml version="1.0" encoding="UTF-8"?>
<svg width="38px" height="38px" viewBox="0 0 38 38" version="1.1" xmlns="http://www.w3.org/2000/svg" xmlns:xlink="http://www.w3.org/1999/xlink">
    <!-- Generator: Sketch 50.2 (55047) - http://www.bohemiancoding.com/sketch -->
    <title>CT text thread</title>
    <desc>Created with Sketch.</desc>
    <defs></defs>
    <g id="FINAL-CHANNEL" stroke="none" stroke-width="1" fill="none" fill-rule="evenodd">
        <g id="2-home-landing-dropdown-create-thread" transform="translate(-1014.000000, -63.000000)">
            <g id="CT-text-thread" transform="translate(1014.000000, 63.000000)">
                <circle id="Oval" fill="#4879B0" cx="19" cy="19" r="19"></circle>
                <path d="M13.4187936,13.719805 L24.5812064,13.719805 L24.5812064,12.6443428 L13.4187936,12.6443428 L13.4187936,13.719805 Z M13.4187936,15.861921 L24.5812064,15.861921 L24.5812064,14.7864588 L13.4187936,14.7864588 L13.4187936,15.861921 Z M13.4187936,20.146153 L24.5812064,20.146153 L24.5812064,19.0706908 L13.4187936,19.0706908 L13.4187936,20.146153 Z M13.4187936,22.288297 L20.6995554,22.288297 L20.6995554,21.2128348 L13.4187936,21.2128348 L13.4187936,22.288297 Z M13.4187936,18.004037 L23.8980091,18.004037 L23.8980091,16.9285748 L13.4187936,16.9285748 L13.4187936,18.004037 Z M24.5068972,9.5 L13.4931028,9.5 C12.7186926,9.5 12.0909091,10.1345395 12.0909091,10.9172836 L12.0909091,27.0827164 C12.0909091,27.8654605 12.7186926,28.5 13.4931028,28.5 L24.5068972,28.5 C25.2813074,28.5 25.9090909,27.8654605 25.9090909,27.0827164 L25.9090909,10.9172836 C25.9090909,10.1345395 25.2813074,9.5 24.5068972,9.5 L24.5068972,9.5 Z" id="Page-1" fill="#FFFFFF"></path>
            </g>
        </g>
    </g>
</svg>