<?xml version="1.0" encoding="UTF-8"?>
<svg width="38px" height="38px" viewBox="0 0 38 38" version="1.1" xmlns="http://www.w3.org/2000/svg" xmlns:xlink="http://www.w3.org/1999/xlink">
    <!-- Generator: Sketch 50.2 (55047) - http://www.bohemiancoding.com/sketch -->
    <title>CT video</title>
    <desc>Created with Sketch.</desc>
    <defs>
        <polygon id="path-1" points="9.5 18.6379572 9.5 26.9122781 28.5 26.9122781 28.5 18.6379572 28.5 10.3636364 9.5 10.3636364"></polygon>
    </defs>
    <g id="FINAL-CHANNEL" stroke="none" stroke-width="1" fill="none" fill-rule="evenodd">
        <g id="2-home-landing-dropdown-create-thread" transform="translate(-1014.000000, -207.000000)">
            <g id="CT-video" transform="translate(1014.000000, 207.000000)">
                <circle id="Oval-Copy" fill="#FF124C" cx="19" cy="19" r="19"></circle>
                <mask id="mask-2" fill="white">
                    <use xlink:href="#path-1"></use>
                </mask>
                <g id="Clip-2"></g>
                <path d="M20.78125,17.462405 C19.7514935,17.462405 18.8441814,16.9416865 18.3101013,16.1505652 C18.8087582,16.5038194 19.4187141,16.7116123 20.0775049,16.7116123 C21.763134,16.7116123 23.129085,15.3519653 23.129085,13.6740773 C23.129085,13.1980757 23.0189967,12.7477546 22.8230049,12.3467859 C23.3976928,12.8867262 23.7565196,13.6519198 23.7565196,14.5007991 C23.7565196,16.1367515 22.42475,17.462405 20.78125,17.462405 M13.0625,17.4559154 C12.1636013,17.4559154 11.3814657,16.9586214 10.9781193,16.2255054 C11.3926111,16.5308288 11.9053317,16.7116123 12.4606471,16.7116123 C13.838799,16.7116123 14.9556389,15.5999633 14.9556389,14.2281095 C14.9556389,13.992071 14.9218301,13.7640365 14.860049,13.5477451 C15.2195278,13.9620331 15.4375,14.5014481 15.4375,15.0918224 C15.4375,16.3973889 14.3740899,17.4559154 13.0625,17.4559154 M27.3125,17.4559154 L23.75,19.8200083 C23.75,19.1024984 23.42225,18.4677472 22.9151797,18.0339284 C24.1222696,17.3099287 24.9375,16.0055366 24.9375,14.5007991 C24.9375,12.21588 23.0767108,10.3636364 20.78125,10.3636364 C18.4858203,10.3636364 16.625,12.215911 16.625,14.5007991 C16.625,15.6597918 17.1065196,16.7047209 17.8784101,17.4559154 L15.7005196,17.4559154 C16.2693399,16.8276538 16.625,16.0043623 16.625,15.0918224 C16.625,13.133179 15.0301797,11.5456829 13.0625,11.5456829 C11.0948203,11.5456829 9.5,13.133179 9.5,15.0918224 C9.5,16.1603924 9.98508987,17.1072039 10.7361797,17.7573449 C10.0029101,18.1598279 9.5,18.9275555 9.5,19.8200083 L9.5,24.5481943 C9.5,25.8537608 10.5634101,26.9122873 11.875,26.9122873 L21.375,26.9122873 C22.6865899,26.9122873 23.75,25.8537608 23.75,24.5481943 L27.3125,26.9122873 C27.9685899,26.9122873 28.5,26.3833177 28.5,25.7302408 L28.5,18.6379619 C28.5,17.984885 27.9685899,17.4559154 27.3125,17.4559154" id="Fill-1" fill="#FFFFFF" mask="url(#mask-2)"></path>
            </g>
        </g>
    </g>
</svg>