<svg height="19" width="170" xmlns="http://www.w3.org/2000/svg"><g fill="none" fill-rule="evenodd"><path d="M97.11 9.86c-.199.208-.382.399-.563.592-.292.31-.576.628-.877.93a.668.668 0 00-.2.517c.007 1.471.004 2.942.004 4.414v.447H92.57V.793h2.89c.004.363.01.731.012 1.099.003.362 0 .723 0 1.085v4.441a7.5 7.5 0 01.073.035c.088-.09.178-.178.263-.271 1.862-2.04 3.726-4.08 5.58-6.127a.793.793 0 01.661-.292c1.022.016 2.043.006 3.065.006h.346c.02.037.03.047.031.059a.05.05 0 01-.007.034c-.02.03-.038.061-.063.087l-6.359 6.803c-.007.008-.01.022-.036.086l7.206 8.893c-.11.023-.174.049-.238.049-1.047.003-2.093-.005-3.139.007-.222.003-.331-.11-.447-.257-1.461-1.85-2.925-3.698-4.388-5.547-.226-.286-.45-.573-.678-.858-.067-.083-.141-.161-.234-.265m38.602-3.003v3.417c0 .883-.006 1.765.003 2.648.007.687.289 1.065.96 1.235.352.09.724.136 1.088.144 1.456.032 2.205-.564 2.505-1.97.215-1.003.215-2.018.123-3.032a3.74 3.74 0 00-.404-1.422c-.308-.582-.781-.968-1.427-1.108-.938-.203-1.873-.103-2.847.088zM132.798 0h2.913v4.548c.522-.052.995-.108 1.47-.147a7.18 7.18 0 012.41.203c1.758.459 2.918 1.564 3.433 3.27.56 1.857.538 3.732-.1 5.568-.658 1.891-2.045 2.967-4.044 3.26-1.221.18-2.428.085-3.584-.368-1.328-.523-2.17-1.466-2.433-2.869a4.748 4.748 0 01-.062-.866c-.004-4.076-.003-8.152-.003-12.228zm-5.086 11.006c-.07-.022-.135-.05-.202-.06-.719-.105-1.442-.158-2.164-.076a5.09 5.09 0 00-1.116.274c-.367.13-.63.406-.749.796-.288.946.217 1.922 1.148 2.207.63.192 1.268.187 1.902.023.683-.176 1.112-.623 1.171-1.341.049-.6.01-1.208.01-1.823m-.027-1.84c.03-1.264-.671-2.068-1.888-2.181a8.828 8.828 0 00-3.527.396l-.363.114c-.072-.275-.088-1.817-.024-2.254a7.087 7.087 0 011.698-.497c1.16-.202 2.32-.246 3.479.018 1.936.442 3.202 1.775 3.396 4.004.092 1.051.054 2.115.063 3.174.004.451.004.906-.044 1.354-.136 1.276-.781 2.218-1.88 2.835-.633.356-1.321.532-2.036.605-1.043.106-2.078.069-3.086-.25-1.2-.381-2.113-1.103-2.567-2.335a3.823 3.823 0 01-.157-2.21c.228-.996.797-1.734 1.672-2.225.698-.392 1.457-.566 2.241-.648a10.976 10.976 0 012.55.055c.149.02.299.028.473.045m38.731 1.841c-.073-.021-.127-.044-.184-.052-.719-.11-1.443-.16-2.166-.08a5.302 5.302 0 00-1.119.269 1.18 1.18 0 00-.734.72c-.33.863.118 1.921.973 2.234.75.274 1.516.27 2.269.002.572-.203.91-.64.952-1.247.041-.602.01-1.208.01-1.846m-5.857-3.494V5.296c.028-.027.05-.06.079-.072 1.755-.658 3.55-.862 5.375-.382 1.816.478 2.82 1.734 3.122 3.589.062.373.081.757.085 1.136.011 1.071.007 2.142.004 3.214-.006 1.7-.88 2.986-2.443 3.596-1.075.419-2.192.465-3.32.366a5.735 5.735 0 01-1.703-.407c-2.104-.87-2.648-2.855-2.3-4.419.232-1.042.858-1.778 1.783-2.26.665-.348 1.383-.507 2.121-.584a11.064 11.064 0 012.557.055c.149.02.299.029.446.043.144-.736-.27-1.549-.956-1.912-.481-.256-1.005-.31-1.534-.305-1.059.01-2.101.138-3.105.503-.053.019-.109.03-.211.056m-10.732 5.811c.155.087.257.142.357.2a5.848 5.848 0 003.795.756c.104-.014.208-.038.31-.066.371-.1.671-.275.738-.71.073-.466-.033-.863-.453-1.105a5.534 5.534 0 00-.896-.405c-.508-.18-1.034-.313-1.538-.503a7.861 7.861 0 01-1.214-.558c-.886-.52-1.355-1.314-1.422-2.358-.11-1.703.695-3.038 2.279-3.618 1.752-.643 3.459-.446 5.097.432.03.016.055.045.091.077v2.107c-.127-.05-.23-.092-.335-.13-1.115-.411-2.257-.531-3.425-.31a1.63 1.63 0 00-.493.182c-.547.311-.592.98-.084 1.348.197.142.428.25.658.33.465.162.945.28 1.41.444.43.152.865.308 1.27.518 1.177.612 1.768 1.622 1.857 2.948.04.587.002 1.164-.246 1.71-.348.77-.928 1.302-1.669 1.668a4.847 4.847 0 01-1.757.477c-1.422.12-2.78-.124-4.058-.783-.093-.048-.18-.107-.272-.161zm-36.326-5.968h-1.956V4.963h1.948c.015-.6.006-1.17.008-1.739V1.526h2.829c.009 1.131-.002 2.26.006 3.423h2.774c.043.81.015 1.585.02 2.395h-2.768c-.011.132-.028.233-.028.334-.001 1.792-.002 3.585.002 5.378 0 .186.023.374.056.558.07.387.308.625.699.707.557.117 1.11.09 1.66-.055.112-.03.225-.057.362-.092v2.255c-.345.18-.728.253-1.115.305-.69.093-1.38.074-2.05-.129-1.296-.39-2.05-1.276-2.323-2.559-.09-.42-.115-.86-.119-1.291-.013-1.652-.005-3.304-.005-4.956zm31.439-2.778h3.036v12.205c-1.017.007-2.016.004-3.036.001zm-34.97 12.209h-2.908c-.076-.284-.1-11.693-.027-12.209h2.919c.082.252.104 11.754.016 12.21m.057-15.992v2.19c-.275.068-2.373.09-2.968.035-.071-.22-.093-1.716-.033-2.2.26-.06 2.372-.081 3-.025m34.914 2.256h3.036V.763h-3.036z" fill="#10a8e5"/><path d="M1.376 18.594v-4.587h.033c.544.66 1.501 1.122 2.59 1.122 2.277 0 3.911-1.881 3.911-4.62s-1.633-4.62-3.943-4.62c-1.073 0-1.997.478-2.558 1.171h-.033v-.924H.089v12.458zm2.525-4.67c-1.386 0-2.525-1.138-2.525-2.574v-1.7c0-1.418 1.139-2.557 2.59-2.557 1.584 0 2.657 1.353 2.657 3.416S5.55 13.924 3.9 13.924zm9.636 1.205c2.474 0 4.124-1.865 4.124-4.62s-1.65-4.62-4.125-4.62-4.108 1.864-4.108 4.62 1.633 4.62 4.109 4.62zm0-1.205c-1.733 0-2.822-1.336-2.822-3.415s1.089-3.416 2.821-3.416 2.839 1.337 2.839 3.416-1.106 3.415-2.838 3.415zm8.596.957l2.492-7.144h.033l2.475 7.144h1.22l2.096-8.745h-1.27l-1.584 6.798h-.033l-2.343-6.798h-1.172l-2.343 6.798h-.033l-1.584-6.798h-1.27l2.095 8.745zm13.53.248c1.683 0 2.954-.776 3.713-2.277l-1.073-.644c-.742 1.287-1.435 1.75-2.673 1.75-1.617 0-2.673-1.403-2.706-3.07h6.65v-.66c0-2.59-1.552-4.34-3.911-4.34-2.409 0-4.043 1.865-4.043 4.62s1.617 4.62 4.043 4.62zm2.607-5.28h-5.313c.033-1.469 1.188-2.789 2.706-2.789 1.551 0 2.558 1.221 2.607 2.789zm4.422 5.032V9.634c0-1.65.511-2.326 1.518-2.326.297 0 .544.05.858.148l.28-1.336a3.118 3.118 0 00-.874-.132c-.841 0-1.485.33-1.815.874h-.033v-.726h-1.221v8.745zm7.788.248c1.683 0 2.954-.776 3.713-2.277l-1.073-.644c-.742 1.287-1.435 1.75-2.673 1.75-1.617 0-2.673-1.403-2.706-3.07h6.65v-.66c0-2.59-1.551-4.34-3.911-4.34-2.409 0-4.042 1.865-4.042 4.62s1.616 4.62 4.042 4.62zm2.607-5.28h-5.313c.033-1.469 1.188-2.789 2.706-2.789 1.551 0 2.558 1.221 2.607 2.789zm6.732 5.28c1.073 0 2.046-.413 2.623-1.122h.034v.874h1.237V2.836h-1.287V7.06h-.033c-.561-.693-1.485-1.171-2.574-1.171-2.293 0-3.927 1.88-3.927 4.62s1.633 4.62 3.927 4.62zm.083-1.205c-1.65 0-2.723-1.353-2.723-3.415s1.073-3.416 2.64-3.416c1.468 0 2.607 1.139 2.607 2.558v1.7c0 1.435-1.139 2.573-2.525 2.573zM74.24 15.13c2.294 0 3.927-1.881 3.927-4.62s-1.633-4.62-3.927-4.62c-1.089 0-2.013.478-2.574 1.171h-.033V2.836h-1.287v12.045h1.238v-.874h.032c.578.71 1.552 1.122 2.624 1.122zm-.082-1.205c-1.386 0-2.525-1.138-2.525-2.574v-1.7c0-1.418 1.139-2.557 2.607-2.557 1.568 0 2.64 1.353 2.64 3.416s-1.072 3.415-2.722 3.415zm7.788 4.67l5.247-12.458h-1.37l-2.673 6.518h-.033l-2.656-6.518h-1.37l3.366 8.003-1.848 4.455z" fill="#fff" fill-rule="nonzero"/></g></svg>