<svg xmlns="http://www.w3.org/2000/svg" xmlns:xlink="http://www.w3.org/1999/xlink" width="20" height="20" viewBox="0 0 20 20">
    <defs>
        <path id="prefix__a" d="M10 2.125c-4.342 0-7.875 3.533-7.875 7.875 0 4.342 3.533 7.875 7.875 7.875 4.342 0 7.875-3.533 7.875-7.875 0-4.342-3.533-7.875-7.875-7.875M10 19c-4.963 0-9-4.037-9-9s4.037-9 9-9 9 4.037 9 9-4.037 9-9 9m2.92-15.75c.437.38.484 1.1.107 1.56-.043.053-.091.101-.139.149-1.477 1.477-2.958 2.95-4.427 4.435-.372.375-.782.543-1.311.396l-.063.233c-.189.704-.377 1.407-.568 2.11-.016.06-.009.1.037.145.39.386.778.775 1.165 1.163.036.036.066.06.125.045.774-.21 1.55-.417 2.325-.625.009-.002.016-.01.028-.016-.015-.081-.035-.162-.044-.244-.037-.381.085-.703.356-.974 1.054-1.051 2.105-2.104 3.157-3.157.473-.473.944-.947 1.419-1.417.438-.435 1.108-.46 1.572-.065.03.025.056.052.091.085l-.073.08c-1.997 1.997-3.994 3.995-5.993 5.991-.043.043-.104.078-.163.094-1.546.417-3.093.832-4.64 1.247-.26.07-.436-.106-.366-.368.417-1.553.833-3.107 1.251-4.66.012-.044.037-.09.069-.123 2.01-2.013 4.02-4.024 6.032-6.036l.052-.048m1.643 1.125c.412.024.77.237.96.678.19.44.112.849-.2 1.213-.018.021-.039.04-.059.06l-4.44 4.443c-.401.401-.975.47-1.432.174-.594-.385-.693-1.212-.205-1.724.159-.166.324-.326.487-.489 1.33-1.331 2.662-2.662 3.992-3.995.231-.232.504-.359.897-.36"/>
    </defs>
    <g fill="none" fill-rule="evenodd">
        <mask id="prefix__b" fill="#fff">
            <use xlink:href="#prefix__a"/>
        </mask>
        <use fill="#B3B3B3" xlink:href="#prefix__a"/>
        <g fill="#0082C6" mask="url(#prefix__b)">
            <path d="M0 0H20V20H0z"/>
        </g>
    </g>
</svg>
