<?xml version="1.0" encoding="UTF-8"?>
<svg width="20px" height="20px" viewBox="0 0 20 20" version="1.1" xmlns="http://www.w3.org/2000/svg" xmlns:xlink="http://www.w3.org/1999/xlink">
    <!-- Generator: Sketch 48.1 (47250) - http://www.bohemiancoding.com/sketch -->
    <title>KREATOR</title>
    <desc>Created with Sketch.</desc>
    <defs></defs>
    <g id="Page-1" stroke="none" stroke-width="1" fill="none" fill-rule="evenodd">
        <g id="KREATOR" fill-rule="nonzero">
            <g id="VCC-badge" transform="translate(1.000000, 1.000000)">
                <path d="M17.9579439,9 C17.9579439,13.9705714 13.9379299,18 8.97897196,18 C4.02001402,18 0,13.9705714 0,9 C0,4.02942857 4.02001402,0 8.97897196,0 C13.9379299,0 17.9579439,4.02942857 17.9579439,9" id="Fill-4" fill="#2F95BD"></path>
                <path d="M9,1.66308197 C4.97548598,1.66308197 1.70125234,4.94498361 1.70125234,8.97892272 C1.70125234,13.012904 4.97548598,16.2947635 9,16.2947635 C13.024514,16.2947635 16.2987477,13.012904 16.2987477,8.97892272 C16.2987477,4.94498361 13.024514,1.66308197 9,1.66308197 M9,16.8196721 C4.68668692,16.8196721 1.17757009,13.3023372 1.17757009,8.97892272 C1.17757009,4.6555082 4.68668692,1.1381733 9,1.1381733 C13.3133131,1.1381733 16.8224299,4.6555082 16.8224299,8.97892272 C16.8224299,13.3023372 13.3133131,16.8196721 9,16.8196721" id="Fill-6" fill="#F0C40F"></path>
                <path d="M9,18 C13.9705714,18 18,13.9705714 18,9 C18,4.02942857 13.9705714,0 9,0" id="Fill-8" fill-opacity="0.1" fill="#000000"></path>
                <path d="M11.1279229,3.16159251 C11.5240116,3.50683796 11.5659707,4.15896826 11.2249585,4.57638222 C11.1861947,4.62384822 11.1429743,4.66781539 11.0996698,4.71127667 C9.76378992,6.05107353 8.42370569,7.38665494 7.09430038,8.73290146 C6.75833337,9.07308835 6.38738638,9.22526616 5.90847254,9.09231083 C5.88913267,9.16435286 5.87029736,9.23386565 5.85171425,9.3034206 C5.68076669,9.94138702 5.51040775,10.579522 5.33811478,11.217109 C5.32365195,11.2705609 5.3298323,11.3064766 5.37162321,11.3479144 C5.72465978,11.6978812 6.07508966,12.0504616 6.42556161,12.403084 C6.45793486,12.4355852 6.48517883,12.4574634 6.53819526,12.4430887 C7.23888686,12.2528453 7.94029319,12.0652999 8.64136321,11.876785 C8.64943549,11.8745929 8.65641465,11.8683962 8.66684136,11.8624102 C8.65347165,11.7887242 8.63488855,11.7152489 8.62757306,11.6406354 C8.59377032,11.2954321 8.7043439,11.0033435 8.94941357,10.7581728 C9.90236422,9.80463777 10.8537593,8.84954297 11.805701,7.89503834 C12.233196,7.46645345 12.6590934,7.0363088 13.0886485,6.60978944 C13.4852839,6.21593983 14.0909158,6.19288133 14.5111374,6.55123683 C14.5374985,6.57374733 14.5618835,6.59857633 14.5934579,6.62821095 C14.569199,6.65472617 14.5491444,6.67824837 14.5273661,6.70004224 C12.7205605,8.51180101 10.9137549,10.323602 9.10530967,12.1337589 C9.06654587,12.172541 9.01155339,12.203904 8.95857897,12.2182365 C7.55980246,12.5968262 6.16031117,12.9728444 4.76081992,13.3490313 C4.52504179,13.4123895 4.36658106,13.2530033 4.42989807,13.0161371 C4.80639474,11.6072911 5.18301753,10.1984874 5.56123794,8.79010512 C5.57200102,8.75001617 5.59432594,8.70786164 5.62329366,8.67873288 C7.44145091,6.85348466 9.26086942,5.02950111 11.0802039,3.20547536 C11.0944565,3.19118497 11.1098864,3.17811707 11.1279229,3.16159251" id="Fill-10" fill="#FFFFFF"></path>
                <path d="M12.2188411,4.59484778 C12.6011678,4.61678535 12.9335215,4.81574226 13.1105721,5.22584827 C13.2871179,5.63460429 13.2135045,6.01576959 12.9245617,6.3541988 C12.9074834,6.37419575 12.8883439,6.39242081 12.8697933,6.41106771 C11.495874,7.78900034 10.122165,9.16718607 8.74774098,10.5445702 C8.37517336,10.917973 7.84225485,10.981381 7.41803173,10.7060645 C6.86727778,10.3486086 6.77507181,9.57868428 7.22815137,9.10230146 C7.37533598,8.94755719 7.52883031,8.79880359 7.6796325,8.64751873 C8.91511667,7.40838347 10.1511477,6.16983884 11.3855802,4.92969107 C11.6005312,4.7137747 11.8539293,4.59619778 12.2188411,4.59484778" id="Fill-12" fill="#FFFFFF"></path>
            </g>
        </g>
    </g>
</svg>