<?xml version="1.0" encoding="UTF-8"?>
<svg width="39px" height="39px" viewBox="0 0 39 39" version="1.1" xmlns="http://www.w3.org/2000/svg" xmlns:xlink="http://www.w3.org/1999/xlink">
    <!-- Generator: Sketch 50.2 (55047) - http://www.bohemiancoding.com/sketch -->
    <title>CT Jualan</title>
    <desc>Created with Sketch.</desc>
    <defs>
        <polygon id="path-1" points="0 0.25498 38.12502 0.25498 38.12502 38.379924 0 38.379924"></polygon>
    </defs>
    <g id="FINAL-CHANNEL" stroke="none" stroke-width="1" fill="none" fill-rule="evenodd">
        <g id="2-home-landing-dropdown-create-thread" transform="translate(-1014.000000, -278.000000)">
            <g id="CT-Jualan" transform="translate(1014.000000, 277.000000)">
                <g id="Group-3" transform="translate(0.000000, 0.745020)">
                    <mask id="mask-2" fill="white">
                        <use xlink:href="#path-1"></use>
                    </mask>
                    <g id="Clip-2"></g>
                    <path d="M38.12502,19.317604 C38.12502,29.845504 29.5906,38.379924 19.0627,38.379924 C8.5348,38.379924 0,29.845504 0,19.317604 C0,8.789324 8.5348,0.254904 19.0627,0.254904 C29.5906,0.254904 38.12502,8.789324 38.12502,19.317604" id="Fill-1" fill="#18A99D" mask="url(#mask-2)"></path>
                </g>
                <path d="M19.6570378,14.2790911 L10.763343,20.5668982 C10.5388312,20.7256812 10.4849188,21.0395546 10.6422248,21.2666512 L14.6841755,27.0958339 C14.7535969,27.1962734 14.8134175,27.2066127 14.8359425,27.2106746 C14.9400746,27.2309841 15.0966421,27.1730098 15.2557943,27.0603847 L24.1494891,20.7722083 C24.3267352,20.6462897 24.5630634,20.33057 24.6347004,20.1223057 L25.5763206,17.1320155 C25.6346641,16.9599391 25.5933067,16.6545587 25.4969291,16.5164544 L23.9678118,14.3101091 C23.872542,14.1727434 23.6063035,14.0298387 23.4408738,14.0272538 L20.4313819,14.0412858 C20.1954229,14.0412858 19.8316991,14.1550188 19.6570378,14.2790911 Z M14.576762,28.337846 C14.266302,28.283126 13.999542,28.106046 13.804602,27.825226 L9.645122,21.826546 C9.187602,21.165726 9.347962,20.252586 10.001942,19.789746 L19.154242,13.318726 C19.501562,13.073246 20.070802,12.902626 20.505522,12.899966 L23.601762,12.885526 C24.085502,12.893126 24.647522,13.193706 24.919222,13.584726 L26.493182,15.855226 C26.762982,16.243206 26.850762,16.875906 26.696862,17.326206 L25.727482,20.405346 C25.584602,20.819926 25.219422,21.307466 24.874762,21.552186 L15.722082,28.023206 C15.412002,28.242846 15.092042,28.356086 14.786142,28.356086 C14.715842,28.356086 14.645922,28.350006 14.576762,28.337846 Z" id="Fill-4" fill="#FEFEFE"></path>
                <path d="M24.956044,16.60033 C24.956044,17.44317 24.272804,18.12641 23.429964,18.12641 C22.587504,18.12641 21.904264,17.44317 21.904264,16.60033 C21.904264,15.75787 22.587504,15.07463 23.429964,15.07463 C24.272804,15.07463 24.956044,15.75787 24.956044,16.60033" id="Fill-6" fill="#FEFEFE"></path>
                <path d="M23.430458,17.07533 C23.252238,17.07533 23.081238,16.97425 23.000298,16.80211 C22.888578,16.56499 22.990798,16.28227 23.227918,16.17055 C23.262498,16.15421 26.676798,14.51945 27.357378,11.92139 C27.423498,11.66717 27.686078,11.51555 27.936878,11.58205 C28.190718,11.64855 28.342718,11.90809 28.276218,12.16193 C27.482398,15.19319 23.788418,16.95677 23.631858,17.03049 C23.566498,17.06089 23.498098,17.07533 23.430458,17.07533" id="Fill-8" fill="#FEFEFE"></path>
            </g>
        </g>
    </g>
</svg>