<svg xmlns="http://www.w3.org/2000/svg" xmlns:xlink="http://www.w3.org/1999/xlink" width="16" height="16" viewBox="0 0 16 16">
    <defs>
        <path id="a" d="M0 0h16v16H0z"/>
    </defs>
    <g fill="none" fill-rule="evenodd">
        <mask id="b" fill="#fff">
            <use xlink:href="#a"/>
        </mask>
        <path fill="#2098EE" d="M16 8A8 8 0 1 1 0 8a8 8 0 0 1 16 0" mask="url(#b)"/>
        <path fill="#FFF" d="M11.242 6.781a.513.513 0 0 0-.364.152l-1.649-.335-.86-1.531a.521.521 0 0 0-.394-.86.52.52 0 0 0-.393.86l-.86 1.531-1.66.337a.507.507 0 0 0-.303-.1.52.52 0 0 0-.518.522.52.52 0 0 0 .668.499l1.038 1.133-.203 1.77a.522.522 0 0 0 .1 1.034.52.52 0 0 0 .517-.522l-.003-.06 1.617-.743 1.618.744a.52.52 0 0 0 .514.58.522.522 0 1 0 .1-1.034l-.204-1.769 1.088-1.187a.52.52 0 0 0 .669-.5.52.52 0 0 0-.518-.52"/>
    </g>
</svg>
